<svg xmlns="http://www.w3.org/2000/svg" viewBox="0 0 48 48" xmlns:xlink="http://www.w3.org/1999/xlink" xml:space="preserve" width="100%" height="100%"><path xmlns="http://www.w3.org/2000/svg" fill="currentColor" fill-rule="evenodd" d="M10.16 18H10a4 4 0 0 0-4 4v4a4 4 0 0 0 4 4h.16a4 4 0 0 1 3.038 1.396l7.284 8.5C21.69 41.304 24 40.45 24 38.594V9.406c0-1.856-2.31-2.71-3.52-1.3l-7.28 8.496A4 4 0 0 1 10.16 18m27.112-9.45a2 2 0 1 0-2.754 2.9c7.31 6.944 7.31 18.156 0 25.1a2 2 0 1 0 2.754 2.9c8.97-8.52 8.97-22.38 0-30.9m-5.894 5.6a2 2 0 1 0-2.756 2.9c4.054 3.85 4.054 10.05 0 13.9a2 2 0 1 0 2.756 2.9c5.714-5.428 5.714-14.272 0-19.7" clip-rule="evenodd"></path></svg>